<svg width="128" height="128" viewBox="0 0 128 128" xmlns="http://www.w3.org/2000/svg" fill="none">
  <!-- Map Pin -->
  <path d="M64 8C44 8 28 24 28 44c0 26 36 68 36 68s36-42 36-68c0-20-16-36-36-36z" fill="#4CAF50"/>
  <circle cx="64" cy="44" r="12" fill="#FFFFFF"/>

  <!-- Leaf -->
  <path d="M20 40c6-10 18-12 26-4-6 2-10 8-10 14 0 4 1 8 4 10-8 4-18-2-20-12z" fill="#8BC34A" stroke="#558B2F" stroke-width="1.5"/>

  <!-- Mushroom -->
  <path d="M84 60c-6 0-10 4-10 10h20c0-6-4-10-10-10z" fill="#D84315"/>
  <rect x="80" y="70" width="8" height="12" rx="2" fill="#FBE9E7"/>

  <!-- Animal Paw -->
  <circle cx="48" cy="80" r="3" fill="#795548"/>
  <circle cx="42" cy="84" r="3" fill="#795548"/>
  <circle cx="54" cy="84" r="3" fill="#795548"/>
  <circle cx="48" cy="88" r="5" fill="#5D4037"/>

  <!-- Bacteria -->
  <ellipse cx="94" cy="94" rx="10" ry="6" fill="#81D4FA" stroke="#0288D1" stroke-width="1"/>
  <circle cx="90" cy="92" r="1.5" fill="#0288D1"/>
  <circle cx="96" cy="95" r="1.2" fill="#0288D1"/>
  <circle cx="92" cy="97" r="1.3" fill="#0288D1"/>
  <!-- Flagella -->
  <path d="M102 94c4 4 6 6 4 8" stroke="#0288D1" stroke-width="1" fill="none"/>
  <path d="M86 94c-4 4-6 6-4 8" stroke="#0288D1" stroke-width="1" fill="none"/>

  <style>
    path, circle, rect, ellipse {
      transition: all 0.3s ease;
    }
  </style>
</svg>

